# xmcd
#
# Track frame offsets:
#	150
#	15305
#	26364
#	38416
#	54076
#	67890
#	82265
#	93742
#	107452
#	120796
#
# Disc length: 1766 seconds
#
# Revision: 0
# Processed by: cddbd v1.5.2PL0 Copyright (c) Steve Scherf et al.
# Submitted via: EasyCDDAExtractor 16.0.6.1
#
DISCID=6306e40a
DTITLE=Συλλογικός δίσκος - Λαϊκό τραγούδι 1954-1967, 1967-4
DYEAR=2008
DGENRE=Λαϊκή
TTITLE0=Αγγελόπουλος Μανώλης - Καλή τύχη [Απόστολος Καλδάρας]
TTITLE1=Μοσχολιού Βίκυ - Σ' έβλεπα στα μάτια [Δήμος Μούτσης-Νίκος Γκάτσος]
TTITLE2=Καλατζής Γιάννης-Καλαβρού Ρούλα - Δάκρυ-δάκρυ Μανωλάκη [Γιώργος Μητσάκ
TTITLE2=ης]
TTITLE3=Μανταλένα - Γειά σου φίλε [Γιώργος Ζαμπέτας-Ηλ. Καραμανέας]
TTITLE4=Κόκοτας Σταμάτης - Πλάϊ μου στάσου στη ζωή [Απόστολος Καλδάρας-Ευτ. Πα
TTITLE4=παγιαννοπούλου]
TTITLE5=Μπιθικώτσης Γρηγόρης - Το σφουγγάρι [Νίκος Δαλέζιος]
TTITLE6=Ζαμπέτας Γιώργος-χορωδία - Ο Γιαννάκης [Γιώργος Ζαμπέτας-Χαράλαμπος Βα
TTITLE6=σιλειάδης]
TTITLE7=Τσαουσάκης Πρόδρομος - Δεν πουλάω το ρολόϊ [Πρόδρομος Τσαουσάκης-Χρήστ
TTITLE7=ος Μίγκος]
TTITLE8=Μενιδιάτης Μιχάλης-Λαμπράκη Χαρούλα - Την αγάπη μου μού την κλέψανε [Γ
TTITLE8=ιάννης Καραμπεσίνης]
TTITLE9=Μπιθικώτσης Γρηγόρης - Θα ρίξω πέτρα στη ζωή [Μίκης Θεοδωράκης-Νίκος Γ
TTITLE9=κάτσος]
EXTD=
EXTT0=
EXTT1=
EXTT2=
EXTT3=
EXTT4=
EXTT5=
EXTT6=
EXTT7=
EXTT8=
EXTT9=
PLAYORDER=
